<svg xmlns="http://www.w3.org/2000/svg" viewBox="0 0 420 760">
<defs><radialGradient id="skin" cx="50%" cy="20%" r="80%"><stop offset="0" stop-color="#f2c7a0"/><stop offset="1" stop-color="#9b5d3d"/></radialGradient><linearGradient id="dark" x1="0" y1="0" x2="0" y2="1"><stop stop-color="#3a3f44"/><stop offset="1" stop-color="#121416"/></linearGradient></defs>
<g fill="url(#dark)" opacity=".98"><circle cx="210" cy="68" r="42"/><path d="M172 120 C148 158 142 220 158 290 L262 290 C278 220 272 158 248 120 C232 136 188 136 172 120Z"/><path d="M158 300 C130 365 128 500 158 654 L196 654 C194 510 206 390 210 312 C214 390 226 510 224 654 L262 654 C292 500 290 365 262 300Z"/><path d="M150 145 C100 170 80 270 64 372 L102 384 C116 310 126 246 160 198Z"/><path d="M270 145 C320 170 340 270 356 372 L318 384 C304 310 294 246 260 198Z"/></g>
<g fill="#39ff14" opacity=".74"><path id="chest" d="M165 154 C188 136 209 148 209 196 C178 196 157 184 165 154Z"/><path d="M211 148 C236 136 259 154 255 184 C242 196 226 198 211 196Z"/><path d="M176 205 L205 205 L202 286 L170 286 C160 246 164 222 176 205Z"/><path d="M214 205 L244 205 C256 228 258 252 250 286 L218 286Z"/><path d="M130 154 C103 173 94 219 86 282 C105 274 126 219 154 190Z"/><path d="M290 154 C317 173 326 219 334 282 C315 274 294 219 266 190Z"/><path d="M158 324 C133 408 142 514 166 640 L195 640 C194 520 203 420 206 324Z"/><path d="M262 324 C287 408 278 514 254 640 L225 640 C226 520 217 420 214 324Z"/></g>
<g stroke="#d8d8d8" opacity=".38" stroke-width="2" fill="none"><path d="M210 118V660"/><path d="M154 190C185 218 236 218 266 190"/><path d="M168 286H252"/></g>
</svg>